<svg xmlns="http://www.w3.org/2000/svg" version="1.1" xmlns:xlink="http://www.w3.org/1999/xlink" xmlns:svgjs="http://svgjs.dev/svgjs" width="1000" height="999" viewBox="0 0 1000 999"><g transform="matrix(1,0,0,1,-0.215743440233382,-0.21552769679306039)"><svg viewBox="0 0 343 343" data-background-color="#0c1d36" preserveAspectRatio="xMidYMid meet" height="999" width="1000" xmlns="http://www.w3.org/2000/svg" xmlns:xlink="http://www.w3.org/1999/xlink"><g id="tight-bounds" transform="matrix(1,0,0,1,0.0740000000000407,0.07400000000001228)"><svg viewBox="0 0 342.85155851775386 342.85155851775386" height="342.85155851775386" width="342.85155851775386"><g><svg></svg></g><g><svg viewBox="0 0 342.85155851775386 342.85155851775386" height="342.85155851775386" width="342.85155851775386"><g><path d="M0 171.426c0-94.676 76.75-171.426 171.426-171.426 94.676 0 171.426 76.75 171.426 171.426 0 94.676-76.75 171.426-171.426 171.426-94.676 0-171.426-76.75-171.426-171.426zM171.426 340.074c93.142 0 168.649-75.507 168.648-168.648 0-93.142-75.507-168.649-168.648-168.649-93.142 0-168.649 75.507-168.649 168.649 0 93.142 75.507 168.649 168.649 168.648z" data-fill-palette-color="tertiary" fill="#f9cc0b" stroke="transparent"></path><ellipse rx="164.56874808852186" ry="164.56874808852186" cx="171.42577925887693" cy="171.42577925887693" fill="#f9cc0b" stroke="transparent" stroke-width="0" fill-opacity="1" data-fill-palette-color="tertiary"></ellipse></g><g transform="matrix(1,0,0,1,64.84655864529837,156.02839633827261)"><svg viewBox="0 0 213.1584412271571 30.79476584120863" height="30.79476584120863" width="213.1584412271571"><g><svg viewBox="0 0 213.1584412271571 30.79476584120863" height="30.79476584120863" width="213.1584412271571"><g><svg viewBox="0 0 213.1584412271571 30.79476584120863" height="30.79476584120863" width="213.1584412271571"><g><svg viewBox="0 0 213.1584412271571 30.79476584120863" height="30.79476584120863" width="213.1584412271571"><g id="textblocktransform"><svg viewBox="0 0 213.1584412271571 30.79476584120863" height="30.79476584120863" width="213.1584412271571" id="textblock"><g><svg viewBox="0 0 213.1584412271571 30.79476584120863" height="30.79476584120863" width="213.1584412271571"><g transform="matrix(1,0,0,1,0,0)"><svg width="213.1584412271571" viewBox="2.700000047683716 -43.099998474121094 389.6832275390625 56.29999923706055" height="30.79476584120863" data-palette-color="#0c1d36"><path d="M53.7 9.5Q43.8 13.2 40.1 13.2L40.1 13.2Q38.45 13.2 34.9 9.53 31.35 5.85 26.8 0.45L26.8 0.45Q24.45 1 22.45 1L22.45 1Q16.6 1 12.13-1.53 7.65-4.05 5.18-8.55 2.7-13.05 2.7-18.75L2.7-18.75Q2.7-24.6 6.4-29.58 10.1-34.55 15.6-37.43 21.1-40.3 26-40.3L26-40.3Q31.9-40.3 36.4-37.75 40.9-35.2 43.35-30.7 45.8-26.2 45.8-20.5L45.8-20.5Q45.8-14.75 42.18-9.85 38.55-4.95 33.05-2L33.05-2Q37.2 1 40.78 3.33 44.35 5.65 45.15 5.65L45.15 5.65 51.9 5.65 53.7 9.5ZM13.5-21.15Q13.5-16.75 14.8-13.15 16.1-9.55 18.78-7.4 21.45-5.25 25.35-5.25L25.35-5.25Q28-5.25 30.2-6.93 32.4-8.6 33.7-11.55 35-14.5 35-18.15L35-18.15Q35-22.55 33.7-26.18 32.4-29.8 29.7-31.93 27-34.05 23.1-34.05L23.1-34.05Q20.45-34.05 18.25-32.38 16.05-30.7 14.78-27.75 13.5-24.8 13.5-21.15L13.5-21.15ZM84.15-3.65L82.3 0 70.4 0 70.4-4.05 65.25 0.15Q63.9 0.55 62.1 0.55L62.1 0.55Q58.15 0.55 55.8-1.53 53.45-3.6 53.45-7.15L53.45-7.15 53.45-17.5 49-20.05 49-23.2 59.2-27.6 62.7-27.6 62.7-11.3Q62.7-9.05 63.37-8.1 64.05-7.15 65.75-7.15L65.75-7.15Q68.05-7.15 70.45-8.5L70.45-8.5 70.45-17.5 66-20.05 66-23.2 76.15-27.6 79.7-27.6 79.7-5.1 84.15-3.65ZM104.85-3.65L103.05 0 86.65 0 86.65-3.2 91.1-7 91.1-17.65 86.65-20.6 86.65-23.75 96.8-28 100.35-28 100.35-5.1 104.85-3.65ZM95.7-43.1Q98.05-43.1 99.52-41.63 101-40.15 101-38L101-38Q101-36.45 99.92-35.13 98.85-33.8 97.22-33 95.6-32.2 94.1-32.2L94.1-32.2Q91.8-32.2 90.27-33.68 88.75-35.15 88.75-37.3L88.75-37.3Q88.75-38.85 89.82-40.18 90.9-41.5 92.55-42.3 94.2-43.1 95.7-43.1L95.7-43.1ZM120.29-9.25L129.44-9.25 131.44-13.75 134.59-12.85 134.59 0.9 130.19 0 108.44 0 108.44-3.55 123.24-17.8 113.89-17.8 111.99-13.8 108.89-14.7 108.89-27.95 113.24-27.05 135.04-27.05 135.04-23.5 120.29-9.25ZM160.79-8.05Q160.79-9.55 159.62-10.9 158.44-12.25 156.74-13.38 155.04-14.5 151.99-16.25L151.99-16.25Q148.24-18.4 145.99-19.93 143.74-21.45 142.14-23.53 140.54-25.6 140.54-28.1L140.54-28.1Q140.54-30.6 142.89-33.48 145.24-36.35 148.67-38.33 152.09-40.3 154.94-40.3L154.94-40.3Q158.39-40.3 163.02-39.55 167.64-38.8 169.79-37.95L169.79-37.95 169.79-26.65 164.19-26.65Q162.29-30.7 159.84-32.95 157.39-35.2 154.74-35.2L154.74-35.2Q152.99-35.2 151.99-34.08 150.99-32.95 150.99-31.2L150.99-31.2Q150.99-29.6 152.19-28.18 153.39-26.75 155.17-25.58 156.94-24.4 160.04-22.7L160.04-22.7Q163.69-20.65 165.92-19.15 168.14-17.65 169.72-15.63 171.29-13.6 171.29-11.15L171.29-11.15Q171.29-8.65 168.77-5.78 166.24-2.9 162.64-0.93 159.04 1.05 156.04 1.05L156.04 1.05Q152.39 1.05 147.44 0.3 142.49-0.45 140.29-1.3L140.29-1.3 140.29-12.65 145.84-12.65Q147.89-8.6 150.67-6.35 153.44-4.1 156.29-4.1L156.29-4.1Q158.34-4.1 159.57-5.25 160.79-6.4 160.79-8.05L160.79-8.05ZM208.79-3.65L206.94 0 195.04 0 195.04-4.05 189.89 0.15Q188.54 0.55 186.74 0.55L186.74 0.55Q182.79 0.55 180.44-1.53 178.09-3.6 178.09-7.15L178.09-7.15 178.09-17.5 173.64-20.05 173.64-23.2 183.84-27.6 187.34-27.6 187.34-11.3Q187.34-9.05 188.01-8.1 188.69-7.15 190.39-7.15L190.39-7.15Q192.69-7.15 195.09-8.5L195.09-8.5 195.09-17.5 190.64-20.05 190.64-23.2 200.79-27.6 204.34-27.6 204.34-5.1 208.79-3.65ZM228.34 0.45Q226.49 0.45 224.99-0.45L224.99-0.45 224.99 7.05 232.79 9.05 230.99 12.65 211.29 12.65 211.29 9.5 215.74 5.65 215.74-17.55 211.29-20.4 211.29-23.6 222.29-28 224.29-22.4 230.24-27.15Q231.84-27.55 233.89-27.55L233.89-27.55Q237.09-27.55 239.64-25.83 242.19-24.1 243.61-21.08 245.04-18.05 245.04-14.4L245.04-14.4Q245.04-10.45 242.44-7 239.84-3.55 235.91-1.53 231.99 0.5 228.34 0.5L228.34 0.5 228.34 0.45ZM230.64-20.05Q227.59-20.05 224.99-18.55L224.99-18.55 224.99-10.95Q224.99-8.75 226.61-7.28 228.24-5.8 231.24-5.8L231.24-5.8Q235.29-5.8 235.29-12.1L235.29-12.1Q235.29-15.6 234.11-17.82 232.94-20.05 230.64-20.05L230.64-20.05ZM266.53-19.85Q264.88-19.85 263.38-18.65L263.38-18.65 263.38-5.65 271.18-3.7 269.38-0.05 249.68-0.05 249.68-3.25 254.13-7.05 254.13-17.55 249.68-20.4 249.68-23.6 260.68-28 262.58-22.6 266.98-27.15Q268.03-27.55 269.33-27.55L269.33-27.55Q272.28-27.55 274.31-26.28 276.33-25 277.13-22.75L277.13-22.75 271.93-16.2 268.38-16.2Q268.33-18.2 267.91-19.03 267.48-19.85 266.53-19.85L266.53-19.85ZM295.48-27.55Q300.88-27.55 303.86-23.48 306.83-19.4 306.73-12L306.73-12 288.88-12Q289.43-9.35 290.93-7.78 292.43-6.2 294.83-6.2L294.83-6.2Q298.38-6.2 305.18-9.25L305.18-9.25 306.68-6.15 299.48-0.35Q296.33 0.5 291.93 0.5L291.93 0.5Q288.18 0.5 285.18-1.23 282.18-2.95 280.51-5.95 278.83-8.95 278.83-12.65L278.83-12.65Q278.83-16.65 281.43-20.08 284.03-23.5 287.93-25.53 291.83-27.55 295.48-27.55L295.48-27.55ZM292.78-21.3Q290.73-21.3 289.71-19.93 288.68-18.55 288.58-15.7L288.58-15.7 297.48-15.7Q297.18-18.55 296.13-19.93 295.08-21.3 292.78-21.3L292.78-21.3ZM361.78-3.8L359.93-0.15 348.03-0.15 348.03-16.7Q348.03-18.5 347.45-19.25 346.88-20 345.43-20L345.43-20Q343.28-20 341.18-18.65L341.18-18.65 341.18-5.1 345.28-3.75 343.43-0.1 331.93-0.1 331.93-16.65Q331.93-18.45 331.35-19.2 330.78-19.95 329.33-19.95L329.33-19.95Q327.18-19.95 325.08-18.6L325.08-18.6 325.08-5.05 329.18-3.7 327.33-0.05 311.38-0.05 311.38-3.25 315.83-7.05 315.83-17.55 311.38-20.4 311.38-23.6 322.38-28 324.38-22.4 330.18-27.15Q331.38-27.55 332.93-27.55L332.93-27.55Q335.88-27.55 337.9-26.25 339.93-24.95 340.73-22.65L340.73-22.65 346.28-27.15Q347.48-27.55 349.03-27.55L349.03-27.55Q352.83-27.55 355.05-25.48 357.28-23.4 357.28-19.85L357.28-19.85 357.28-5.1 361.78-3.8ZM381.13-27.55Q386.53-27.55 389.5-23.48 392.48-19.4 392.38-12L392.38-12 374.53-12Q375.08-9.35 376.58-7.78 378.08-6.2 380.48-6.2L380.48-6.2Q384.03-6.2 390.83-9.25L390.83-9.25 392.33-6.15 385.13-0.35Q381.98 0.5 377.58 0.5L377.58 0.5Q373.83 0.5 370.83-1.23 367.83-2.95 366.15-5.95 364.48-8.95 364.48-12.65L364.48-12.65Q364.48-16.65 367.08-20.08 369.68-23.5 373.58-25.53 377.48-27.55 381.13-27.55L381.13-27.55ZM378.43-21.3Q376.38-21.3 375.35-19.93 374.33-18.55 374.23-15.7L374.23-15.7 383.13-15.7Q382.83-18.55 381.78-19.93 380.73-21.3 378.43-21.3L378.43-21.3Z" opacity="1" transform="matrix(1,0,0,1,0,0)" fill="#0c1d36" class="undefined-text-0" data-fill-palette-color="quaternary" id="text-0"></path></svg></g></svg></g></svg></g></svg></g><g></g></svg></g></svg></g></svg></g></svg></g><defs></defs></svg><rect width="342.85155851775386" height="342.85155851775386" fill="none" stroke="none" visibility="hidden"></rect></g></svg></g></svg>